<svg width="15" height="15" viewBox="0 0 15 15" fill="none" xmlns="http://www.w3.org/2000/svg">
<path d="M5.20918 8.99273C5.20777 9.0964 5.18535 9.19886 5.14323 9.29423C5.10111 9.3896 5.04011 9.47601 4.96373 9.54849C4.88734 9.62098 4.79708 9.67813 4.69811 9.71665C4.59914 9.75518 4.49342 9.77432 4.387 9.77299L1.33761 9.73996C1.23118 9.73898 1.12608 9.71756 1.02834 9.6769C0.930593 9.63625 0.842124 9.57717 0.768004 9.50305C0.693884 9.42893 0.635573 9.34123 0.596412 9.24497C0.557251 9.14872 0.538013 9.04581 0.539798 8.94215L0.585681 5.97167C0.587282 5.86805 0.609816 5.76568 0.652001 5.67039C0.694186 5.5751 0.755194 5.48876 0.831541 5.41631C0.907888 5.34385 0.998079 5.2867 1.09696 5.24811C1.19585 5.20952 1.30149 5.19026 1.40786 5.19141C1.51423 5.19256 1.61925 5.21411 1.71691 5.25483C1.81457 5.29555 1.90296 5.35463 1.97705 5.42872C2.05113 5.5028 2.10945 5.59043 2.14868 5.6866C2.1879 5.78277 2.20727 5.8856 2.20567 5.98922L2.19013 7.05674L8.52578 1.04415C8.6797 0.898081 8.88665 0.817323 9.1011 0.819646C9.31555 0.821969 9.51994 0.907183 9.6693 1.05654C9.81866 1.2059 9.90076 1.40717 9.89753 1.61607C9.8943 1.82497 9.80602 2.0244 9.65209 2.17047L3.31645 8.18306L4.41376 8.19448C4.52002 8.19576 4.6249 8.21742 4.7224 8.25824C4.8199 8.29906 4.9081 8.35823 4.98198 8.43236C5.05585 8.5065 5.11394 8.59415 5.15293 8.6903C5.19191 8.78645 5.21103 8.88922 5.20918 8.99273ZM14.3574 9.09182L14.4032 6.12134C14.405 6.01768 14.3858 5.91477 14.3466 5.81852C14.3075 5.72227 14.2492 5.63457 14.175 5.56045C14.1009 5.48633 14.0125 5.42725 13.9147 5.38659C13.817 5.34594 13.7119 5.32451 13.6054 5.32354L10.556 5.2905C10.3412 5.28818 10.1339 5.36908 9.97972 5.5154C9.82553 5.66173 9.73709 5.8615 9.73386 6.07076C9.73063 6.28003 9.81287 6.48165 9.96249 6.63127C10.1121 6.78088 10.3168 6.86625 10.5317 6.86857L11.6285 6.88045L5.29285 12.893C5.13893 13.0391 5.05065 13.2385 5.04742 13.4474C5.04419 13.6563 5.12629 13.8576 5.27565 14.007C5.42501 14.1563 5.62939 14.2415 5.84385 14.2439C6.0583 14.2462 6.26525 14.1654 6.41917 14.0194L12.7548 8.00677L12.7378 9.07567C12.7346 9.28494 12.8168 9.48656 12.9665 9.63617C13.1161 9.78579 13.3208 9.87115 13.5356 9.87348C13.7505 9.87581 13.9578 9.79491 14.112 9.64858C14.2661 9.50226 14.3546 9.30249 14.3578 9.09322L14.3574 9.09182Z" fill="#4A5DCD"/>
</svg>
